<svg width="121" height="12" viewBox="0 0 121 12" fill="none" xmlns="http://www.w3.org/2000/svg">
<path d="M120.463 6.08362L115.463 3.19687V8.97037L120.463 6.08362ZM3.79647 6.58362C4.07261 6.58362 4.29647 6.35976 4.29647 6.08362C4.29647 5.80748 4.07261 5.58362 3.79647 5.58362V6.58362ZM10.4631 5.58362C10.187 5.58362 9.96313 5.80748 9.96313 6.08362C9.96313 6.35976 10.187 6.58362 10.4631 6.58362V5.58362ZM17.1298 6.58362C17.4059 6.58362 17.6298 6.35976 17.6298 6.08362C17.6298 5.80748 17.4059 5.58362 17.1298 5.58362V6.58362ZM23.7965 5.58362C23.5203 5.58362 23.2965 5.80748 23.2965 6.08362C23.2965 6.35976 23.5203 6.58362 23.7965 6.58362V5.58362ZM30.4631 6.58362C30.7393 6.58362 30.9631 6.35976 30.9631 6.08362C30.9631 5.80748 30.7393 5.58362 30.4631 5.58362V6.58362ZM37.1298 5.58362C36.8537 5.58362 36.6298 5.80748 36.6298 6.08362C36.6298 6.35976 36.8537 6.58362 37.1298 6.58362V5.58362ZM43.7965 6.58362C44.0726 6.58362 44.2965 6.35976 44.2965 6.08362C44.2965 5.80748 44.0726 5.58362 43.7965 5.58362V6.58362ZM50.4631 5.58362C50.187 5.58362 49.9631 5.80748 49.9631 6.08362C49.9631 6.35976 50.187 6.58362 50.4631 6.58362V5.58362ZM57.1298 6.58362C57.406 6.58362 57.6298 6.35976 57.6298 6.08362C57.6298 5.80748 57.406 5.58362 57.1298 5.58362V6.58362ZM63.7965 5.58362C63.5203 5.58362 63.2965 5.80748 63.2965 6.08362C63.2965 6.35976 63.5203 6.58362 63.7965 6.58362V5.58362ZM70.4631 6.58362C70.7393 6.58362 70.9631 6.35976 70.9631 6.08362C70.9631 5.80748 70.7393 5.58362 70.4631 5.58362V6.58362ZM77.1298 5.58362C76.8537 5.58362 76.6298 5.80748 76.6298 6.08362C76.6298 6.35976 76.8537 6.58362 77.1298 6.58362V5.58362ZM83.7965 6.58362C84.0726 6.58362 84.2965 6.35976 84.2965 6.08362C84.2965 5.80748 84.0726 5.58362 83.7965 5.58362V6.58362ZM90.4631 5.58362C90.187 5.58362 89.9631 5.80748 89.9631 6.08362C89.9631 6.35976 90.187 6.58362 90.4631 6.58362V5.58362ZM97.1298 6.58362C97.4059 6.58362 97.6298 6.35976 97.6298 6.08362C97.6298 5.80748 97.4059 5.58362 97.1298 5.58362V6.58362ZM103.796 5.58362C103.52 5.58362 103.296 5.80748 103.296 6.08362C103.296 6.35976 103.52 6.58362 103.796 6.58362V5.58362ZM110.463 6.58362C110.739 6.58362 110.963 6.35976 110.963 6.08362C110.963 5.80748 110.739 5.58362 110.463 5.58362V6.58362ZM117.13 5.58362C116.854 5.58362 116.63 5.80748 116.63 6.08362C116.63 6.35976 116.854 6.58362 117.13 6.58362V5.58362ZM0.463135 6.58362L3.79647 6.58362V5.58362L0.463135 5.58362L0.463135 6.58362ZM10.4631 6.58362L17.1298 6.58362V5.58362L10.4631 5.58362V6.58362ZM23.7965 6.58362L30.4631 6.58362V5.58362L23.7965 5.58362V6.58362ZM37.1298 6.58362L43.7965 6.58362V5.58362L37.1298 5.58362V6.58362ZM50.4631 6.58362L57.1298 6.58362V5.58362L50.4631 5.58362V6.58362ZM63.7965 6.58362L70.4631 6.58362V5.58362L63.7965 5.58362V6.58362ZM77.1298 6.58362L83.7965 6.58362V5.58362L77.1298 5.58362V6.58362ZM90.4631 6.58362L97.1298 6.58362V5.58362L90.4631 5.58362V6.58362ZM103.796 6.58362L110.463 6.58362V5.58362L103.796 5.58362V6.58362ZM120.463 6.08362L110.463 0.310115V11.8571L120.463 6.08362ZM3.79647 7.08362C4.34875 7.08362 4.79647 6.6359 4.79647 6.08362C4.79647 5.53133 4.34875 5.08362 3.79647 5.08362V7.08362ZM10.4631 5.08362C9.91085 5.08362 9.46313 5.53133 9.46313 6.08362C9.46313 6.6359 9.91085 7.08362 10.4631 7.08362V5.08362ZM17.1298 7.08362C17.6821 7.08362 18.1298 6.6359 18.1298 6.08362C18.1298 5.53133 17.6821 5.08362 17.1298 5.08362V7.08362ZM23.7965 5.08362C23.2442 5.08362 22.7965 5.53133 22.7965 6.08362C22.7965 6.6359 23.2442 7.08362 23.7965 7.08362V5.08362ZM30.4631 7.08362C31.0154 7.08362 31.4631 6.6359 31.4631 6.08362C31.4631 5.53133 31.0154 5.08362 30.4631 5.08362V7.08362ZM37.1298 5.08362C36.5775 5.08362 36.1298 5.53133 36.1298 6.08362C36.1298 6.6359 36.5775 7.08362 37.1298 7.08362V5.08362ZM43.7965 7.08362C44.3488 7.08362 44.7965 6.6359 44.7965 6.08362C44.7965 5.53133 44.3488 5.08362 43.7965 5.08362V7.08362ZM50.4631 5.08362C49.9109 5.08362 49.4631 5.53133 49.4631 6.08362C49.4631 6.6359 49.9109 7.08362 50.4631 7.08362V5.08362ZM57.1298 7.08362C57.6821 7.08362 58.1298 6.6359 58.1298 6.08362C58.1298 5.53133 57.6821 5.08362 57.1298 5.08362V7.08362ZM63.7965 5.08362C63.2442 5.08362 62.7965 5.53133 62.7965 6.08362C62.7965 6.6359 63.2442 7.08362 63.7965 7.08362V5.08362ZM70.4631 7.08362C71.0154 7.08362 71.4631 6.6359 71.4631 6.08362C71.4631 5.53133 71.0154 5.08362 70.4631 5.08362V7.08362ZM77.1298 5.08362C76.5775 5.08362 76.1298 5.53133 76.1298 6.08362C76.1298 6.6359 76.5775 7.08362 77.1298 7.08362V5.08362ZM83.7965 7.08362C84.3488 7.08362 84.7965 6.6359 84.7965 6.08362C84.7965 5.53133 84.3488 5.08362 83.7965 5.08362V7.08362ZM90.4631 5.08362C89.9109 5.08362 89.4631 5.53133 89.4631 6.08362C89.4631 6.6359 89.9109 7.08362 90.4631 7.08362V5.08362ZM97.1298 7.08362C97.6821 7.08362 98.1298 6.6359 98.1298 6.08362C98.1298 5.53133 97.6821 5.08362 97.1298 5.08362V7.08362ZM103.796 5.08362C103.244 5.08362 102.796 5.53133 102.796 6.08362C102.796 6.6359 103.244 7.08362 103.796 7.08362V5.08362ZM110.463 7.08362C111.015 7.08362 111.463 6.6359 111.463 6.08362C111.463 5.53133 111.015 5.08362 110.463 5.08362V7.08362ZM117.13 5.08362C116.578 5.08362 116.13 5.53133 116.13 6.08362C116.13 6.6359 116.578 7.08362 117.13 7.08362V5.08362ZM0.463135 7.08362L3.79647 7.08362V5.08362H0.463135L0.463135 7.08362ZM10.4631 7.08362L17.1298 7.08362V5.08362L10.4631 5.08362V7.08362ZM23.7965 7.08362L30.4631 7.08362V5.08362L23.7965 5.08362V7.08362ZM37.1298 7.08362L43.7965 7.08362V5.08362L37.1298 5.08362V7.08362ZM50.4631 7.08362L57.1298 7.08362V5.08362L50.4631 5.08362V7.08362ZM63.7965 7.08362L70.4631 7.08362V5.08362L63.7965 5.08362V7.08362ZM77.1298 7.08362L83.7965 7.08362V5.08362L77.1298 5.08362V7.08362ZM90.4631 7.08362L97.1298 7.08362V5.08362L90.4631 5.08362V7.08362ZM103.796 7.08362L110.463 7.08362V5.08362L103.796 5.08362V7.08362Z" fill="white"/>
</svg>
